<svg width="56" height="56" viewBox="0 0 56 56" fill="none" xmlns="http://www.w3.org/2000/svg">
                           <g clip-path="url(#clip0_4374_562)">
                              <path d="M26.4295 4.03732C26.3263 4.04669 25.9982 4.0795 25.703 4.10294C18.8927 4.71694 12.5136 8.39158 8.47339 14.0395C6.22361 17.1798 4.78469 20.7419 4.24099 24.515C4.04883 25.8321 4.02539 26.2211 4.02539 28.0069C4.02539 29.7926 4.04883 30.1816 4.24099 31.4987C5.54399 40.5025 11.9512 48.0674 20.641 50.8702C22.1971 51.3718 23.8375 51.7139 25.703 51.9201C26.4295 51.9998 29.5698 51.9998 30.2963 51.9201C33.5163 51.5639 36.2441 50.7671 38.9345 49.3938C39.3469 49.1829 39.4266 49.1267 39.3704 49.0798C39.3329 49.0517 37.5752 46.6941 35.4661 43.8444L31.6321 38.6652L26.8279 31.5549C24.1844 27.646 22.0096 24.4494 21.9908 24.4494C21.9721 24.4447 21.9533 27.6038 21.944 31.4612C21.9299 38.2152 21.9252 38.4871 21.8408 38.6464C21.719 38.8761 21.6252 38.9698 21.4284 39.073C21.2784 39.148 21.1472 39.162 20.4394 39.162H19.6286L19.4129 39.0261C19.2723 38.937 19.1692 38.8199 19.0989 38.6839L19.0005 38.473L19.0099 29.0755L19.0239 19.6733L19.1692 19.4905C19.2442 19.3921 19.4036 19.2655 19.5161 19.2046C19.7082 19.1108 19.7832 19.1015 20.5941 19.1015C21.5502 19.1015 21.7096 19.139 21.958 19.4108C22.0283 19.4858 24.6296 23.4042 27.7418 28.124C30.854 32.8439 35.1099 39.2886 37.2003 42.4523L40.9968 48.2033L41.1889 48.0768C42.8903 46.9706 44.6902 45.3958 46.115 43.7553C49.1475 40.2728 51.102 36.0264 51.7582 31.4987C51.9504 30.1816 51.9738 29.7926 51.9738 28.0069C51.9738 26.2211 51.9504 25.8321 51.7582 24.515C50.4552 15.5112 44.048 7.94631 35.3583 5.14346C33.8256 4.64663 32.1945 4.30448 30.3666 4.09825C29.9166 4.05138 26.8185 3.99982 26.4295 4.03732ZM36.2441 18.539C36.4691 18.6515 36.6519 18.8671 36.7175 19.0921C36.755 19.214 36.7644 21.82 36.755 27.6928L36.7409 36.1201L35.2552 33.8422L33.7647 31.5643V25.4384C33.7647 21.4778 33.7834 19.2515 33.8115 19.1437C33.8865 18.8812 34.0506 18.675 34.2756 18.5531C34.4677 18.4547 34.538 18.4453 35.2739 18.4453C35.9676 18.4453 36.0894 18.4547 36.2441 18.539Z" fill="black"></path>
                              <path d="M40.7636 48.3064C40.5996 48.4095 40.548 48.4799 40.6933 48.4002C40.7964 48.3392 40.9652 48.2127 40.9371 48.208C40.923 48.208 40.8433 48.2549 40.7636 48.3064ZM40.4402 48.5174C40.3559 48.583 40.3559 48.5877 40.459 48.5361C40.5152 48.508 40.5621 48.4752 40.5621 48.4658C40.5621 48.4283 40.5387 48.4377 40.4402 48.5174ZM40.2059 48.658C40.1215 48.7236 40.1215 48.7283 40.2246 48.6767C40.2809 48.6486 40.3277 48.6158 40.3277 48.6064C40.3277 48.5689 40.3043 48.5783 40.2059 48.658ZM39.9715 48.7986C39.8872 48.8642 39.8872 48.8689 39.9903 48.8173C40.0465 48.7892 40.0934 48.7564 40.0934 48.747C40.0934 48.7095 40.07 48.7189 39.9715 48.7986ZM39.6153 48.9861C39.4372 49.0798 39.4466 49.1173 39.6247 49.0282C39.7044 48.9861 39.7653 48.9439 39.7653 48.9345C39.7653 48.9017 39.7606 48.9064 39.6153 48.9861Z" fill="black"></path>
                           </g>
                           <defs>
                              <clipPath id="clip0_4374_562">
                                 <rect width="48" height="48" fill="white" transform="translate(4 4)"></rect>
                              </clipPath>
                           </defs>
                        </svg>