<svg width="56" height="56" viewBox="0 0 56 56" fill="none" xmlns="http://www.w3.org/2000/svg" class="">
                           <g clip-path="url(#clip0_4374_563)">
                              <path d="M21.2337 27.6299C21.5946 26.8941 21.9745 26.1554 22.3654 25.434L22.3687 25.4279L22.7836 24.6231L23.3962 23.6081L23.4 23.6015C23.6288 23.2122 23.8661 22.8193 24.1054 22.4335L24.527 21.7372C25.0882 20.8081 25.5393 20.1305 26.251 19.1486C26.6344 18.6201 26.998 18.1561 27.5741 17.4361L27.5755 17.4348L27.6039 17.3989L27.615 17.3847C27.8489 17.0865 28.085 16.7926 28.3167 16.5111L28.3244 16.5016L28.3289 16.496C28.8664 15.8303 29.4143 15.1622 29.9572 14.511L30.1731 14.252V10.4276H29.7826C29.5745 10.2318 29.3617 10.0373 29.1493 9.84809C27.4277 8.32056 25.711 7.12213 24.0454 6.28888C22.3376 5.43354 20.7605 5 19.3581 5C18.3568 5 17.462 5.22421 16.6985 5.6661C15.9642 6.09106 15.3473 6.72423 14.8644 7.54822C14.4119 8.32033 14.0785 9.26004 13.873 10.341C13.4774 12.4245 13.5631 15.0327 14.1211 17.8825C14.1915 18.2412 14.2691 18.6043 14.3524 18.9652C13.9071 19.1006 13.4747 19.24 13.0637 19.3832C10.3736 20.3211 8.1238 21.5466 6.55792 22.9278C5.74588 23.643 5.11791 24.3991 4.6882 25.1749C4.23166 25.9997 4 26.8458 4 27.6897C4 29.3814 4.93723 31.0957 6.71018 32.6508C8.37936 34.1154 10.7399 35.3941 13.5347 36.3501C13.7943 36.4383 14.0584 36.524 14.3242 36.6059C14.2312 37.0103 14.1453 37.4179 14.0679 37.8239C13.5365 40.6227 13.4745 43.1838 13.8875 45.2304C14.102 46.2905 14.4426 47.2129 14.9 47.9726C15.3863 48.7801 16.0037 49.4036 16.7348 49.8252C17.5051 50.2693 18.4116 50.4944 19.4292 50.4944C20.8146 50.4944 22.3636 50.0837 24.0332 49.2734C25.6699 48.4792 27.3407 47.3417 28.9986 45.8924C29.2541 45.6691 29.5174 45.4302 29.7804 45.1812H30.1731V41.2476L30.0301 41.0716L29.9624 40.9888L28.162 38.7659L27.1616 37.5309C26.6565 36.9074 25.8477 35.7537 24.8834 34.2828C24.1164 33.1134 23.5579 32.1744 23.2931 31.7197L23.2642 31.6698C22.8021 30.8729 22.4587 30.2309 22.1831 29.7155C21.838 29.0697 21.4976 28.4101 21.1701 27.7531L21.2301 27.6365L21.2337 27.6299ZM19.4098 23.7301C19.1046 22.9474 18.8251 22.1708 18.5752 21.4111C19.355 21.2502 20.1656 21.1059 20.996 20.98C20.719 21.4336 20.4469 21.8915 20.1839 22.3478C19.9209 22.8042 19.6624 23.2657 19.4098 23.7301ZM18.547 34.1535C18.8053 33.3672 19.0953 32.5619 19.4129 31.7492C19.6676 32.2161 19.9288 32.6808 20.1929 33.1371C20.4697 33.6151 20.7568 34.0953 21.049 34.5713C20.1814 34.4513 19.3432 34.3112 18.547 34.1537V34.1535ZM17.155 11.3438C17.358 9.95117 17.8123 8.95575 18.404 8.61312C18.6496 8.47078 18.9756 8.39883 19.3723 8.39883C20.2401 8.39883 21.3627 8.73943 22.6184 9.38388C23.9795 10.0831 25.4554 11.1232 26.8866 12.3941C26.9753 12.4729 27.0661 12.5547 27.1589 12.6397C25.9 14.0317 24.6594 15.5784 23.4668 17.2435C21.4349 17.442 19.4815 17.7384 17.6526 18.1257C17.5865 17.8361 17.5245 17.5449 17.4676 17.2573L17.4622 17.2275C17.0262 14.9998 16.92 12.9643 17.155 11.3438ZM17.4101 27.7425C16.5507 29.6372 15.8203 31.513 15.2363 33.3243C15.0333 33.2612 14.8328 33.1953 14.6352 33.1281C12.3119 32.3339 10.3768 31.3087 9.03937 30.1635C8.01598 29.2871 7.40514 28.3628 7.40514 27.6906C7.40514 27.0006 8.0162 26.1116 9.082 25.25C10.3226 24.2469 12.0881 23.3302 14.1841 22.5996C14.5402 22.476 14.903 22.3575 15.2668 22.2468C15.8427 24.0317 16.5634 25.8782 17.4099 27.7422L17.4101 27.7425ZM17.4128 38.4551C17.4773 38.1167 17.5482 37.7763 17.6255 37.438C19.4301 37.8072 21.4058 38.0856 23.5072 38.266C24.7112 39.9429 25.9622 41.5 27.2301 42.9001C27.0736 43.0442 26.9157 43.1861 26.7587 43.3239C24.9233 44.9283 23.08 46.0882 21.429 46.6783L21.3948 46.6905C20.6549 46.9517 19.9942 47.0841 19.4323 47.0841C19.0177 47.0841 18.683 47.0124 18.4374 46.8707C17.8394 46.5258 17.374 45.552 17.1607 44.1989C16.9112 42.6219 16.9985 40.6356 17.4126 38.4548L17.4128 38.4551Z" fill="#41E0FD" class=""></path>
                              <path d="M50.7168 29.5685C49.8708 28.0129 48.6261 27.0036 46.9828 26.5408C46.9701 26.5357 46.9593 26.5268 46.9521 26.5152C46.9448 26.5037 46.9414 26.4901 46.9424 26.4765C46.9418 26.4646 46.9443 26.4527 46.9497 26.4421C46.9551 26.4315 46.9633 26.4225 46.9733 26.416C48.1968 25.7357 49.1371 24.7669 49.7963 23.531C50.4602 22.2846 50.7922 20.7846 50.7924 19.0312C50.7924 16.1383 50.0604 13.9864 48.603 12.555C47.1456 11.1235 45.2055 10.4121 42.7902 10.4121H29.7446C29.7164 10.4121 29.6934 10.4417 29.6934 10.4782V45.1145C29.6934 45.1511 29.7159 45.1806 29.7446 45.1806H42.0733C43.809 45.1806 45.3061 44.9273 46.5646 44.4207C47.8257 43.915 48.8518 43.2324 49.6596 42.3753C50.4673 41.5181 51.0563 40.4956 51.4339 39.3076C51.8115 38.1294 52 36.8534 52 35.4901C52.0009 33.1133 51.5697 31.1464 50.7168 29.5685ZM34.4237 15.403C34.4237 15.3664 34.4463 15.3369 34.4749 15.3369H42.132C43.4166 15.3369 44.3991 15.6978 45.079 16.4095C45.7588 17.1211 46.0985 18.3584 46.0985 20.1128C46.0985 21.6733 45.721 22.8629 44.9651 23.7011C44.2092 24.5393 43.265 24.9489 42.1313 24.9489H34.4745C34.4463 24.9489 34.4233 24.9194 34.4233 24.8828L34.4237 15.403ZM46.1116 38.7671C45.3253 39.7316 44.2076 40.2107 42.7717 40.2107H34.4745C34.4463 40.2107 34.4233 40.1812 34.4233 40.1446V29.3987C34.4233 29.3621 34.4458 29.3326 34.4745 29.3326H42.7712C44.2072 29.3326 45.3104 29.7812 46.1112 30.7164C46.9119 31.6516 47.3051 32.968 47.3051 34.6932C47.3056 36.4474 46.9045 37.8121 46.1116 38.7671Z" fill="#41E0FD" class=""></path>
                           </g>
                           <defs>
                              <clipPath id="clip0_4374_563">
                                 <rect width="48" height="45.4937" fill="white" transform="translate(4 5)"></rect>
                              </clipPath>
                           </defs>
                        </svg>