<svg width="56" height="56" viewBox="0 0 56 56" fill="none" xmlns="http://www.w3.org/2000/svg">
                           <g clip-path="url(#clip0_4374_564)">
                              <path d="M45.3054 30.6812C43.6273 30.6906 42.1741 31.0937 40.9554 31.6937C40.5054 30.8031 40.0554 30.0249 39.9805 29.4437C39.8961 28.7687 39.793 28.3562 39.8961 27.55C39.9991 26.7437 40.4679 25.5999 40.4679 25.5062C40.4584 25.4218 40.3647 25.0093 39.3991 24.9999C38.4336 24.9905 37.5991 25.1874 37.5054 25.4405C37.4116 25.6937 37.2241 26.2749 37.1022 26.8749C36.9335 27.7562 35.171 30.878 34.1679 32.5187C33.8397 31.8812 33.5585 31.3187 33.5022 30.8686C33.4179 30.1937 33.3147 29.7811 33.4179 28.9749C33.521 28.1686 33.9897 27.0249 33.9897 26.9312C33.9804 26.8468 33.8866 26.4343 32.9211 26.4249C31.9554 26.4155 31.1211 26.6124 31.0273 26.8655C30.9336 27.1187 30.8305 27.7187 30.6242 28.2999C30.4272 28.8812 28.0835 34.0937 27.4741 35.453C27.1647 36.1468 26.893 36.6999 26.696 37.0749C26.4991 37.4499 26.6866 37.103 26.6679 37.1405C26.4991 37.4593 26.4054 37.6374 26.4054 37.6374V37.6469C26.2741 37.8812 26.1335 38.1062 26.0678 38.1062C26.0209 38.1062 25.9272 37.478 26.0865 36.6156C26.4334 34.8062 27.2772 31.9844 27.2679 31.8812C27.2679 31.8344 27.4272 31.3374 26.724 31.0844C26.0397 30.8312 25.796 31.2531 25.7397 31.2531C25.6834 31.2531 25.6365 31.4031 25.6365 31.4031C25.6365 31.4031 26.3959 28.2251 24.1834 28.2251C22.7959 28.2251 20.8834 29.7345 19.9365 31.1126C19.3365 31.4407 18.0615 32.1344 16.7115 32.8751C16.1959 33.1563 15.6615 33.4563 15.1553 33.7282L15.0522 33.6155C12.371 30.7562 7.41162 28.7312 7.61787 24.8874C7.69287 23.4905 8.18038 19.8062 17.143 15.3437C24.4836 11.6874 30.3617 12.6905 31.3835 14.9218C32.8366 18.1093 28.2429 24.0343 20.6117 24.8874C17.7055 25.2155 16.1772 24.0905 15.793 23.6687C15.3898 23.228 15.3336 23.2093 15.1836 23.2937C14.9398 23.4249 15.0898 23.8187 15.1836 24.053C15.4086 24.6437 16.3461 25.6937 17.9398 26.2187C19.3366 26.678 22.7492 26.9312 26.8742 25.3374C31.4961 23.5468 35.1055 18.578 34.0461 14.4249C32.968 10.1968 25.9555 8.80928 19.3273 11.1624C15.3804 12.5687 11.1054 14.7624 8.03038 17.6405C4.37412 21.053 3.79287 24.0343 4.03662 25.2718C4.88984 29.6874 10.9741 32.5655 13.4116 34.6937C13.2898 34.7592 13.1772 34.8248 13.0741 34.8812C11.8554 35.4811 7.21475 37.9093 6.05225 40.4779C4.73975 43.3842 6.2585 45.4749 7.271 45.7562C10.4023 46.628 13.6085 45.0624 15.3429 42.4843C17.0678 39.9062 16.8616 36.5593 16.0647 35.0312L16.0365 34.9749L16.9928 34.4124C17.6116 34.0468 18.221 33.7093 18.7553 33.4186C18.4554 34.2342 18.2397 35.1998 18.1272 36.6061C17.996 38.2562 18.671 40.3936 19.5616 41.2373C19.9554 41.6028 20.4241 41.6123 20.7148 41.6123C21.746 41.6123 22.2148 40.7591 22.7304 39.7373C23.3679 38.4904 23.9304 37.0467 23.9304 37.0467C23.9304 37.0467 23.2272 40.9561 25.1491 40.9561C25.8522 40.9561 26.5554 40.0467 26.8741 39.5779V39.5873C26.8741 39.5873 26.8929 39.5592 26.9304 39.4936C26.9697 39.4354 27.0072 39.376 27.0429 39.3155V39.2968C27.3241 38.8093 27.9522 37.6937 28.8897 35.8468C30.099 33.4655 31.2616 30.4843 31.2616 30.4843C31.2616 30.4843 31.3741 31.2155 31.721 32.4155C31.9272 33.1281 32.3772 33.9062 32.724 34.6655C32.4428 35.0593 32.274 35.2844 32.274 35.2844L32.2834 35.2937C32.0585 35.5937 31.8053 35.9126 31.5429 36.2312C30.5866 37.375 29.4429 38.6782 29.2929 39.0532C29.1147 39.4937 29.1523 39.8219 29.4991 40.0845C29.7522 40.272 30.2022 40.3094 30.6804 40.272C31.5429 40.2156 32.1429 40.0001 32.4429 39.8687C32.9116 39.7 33.446 39.4469 33.9616 39.0719C34.8991 38.3782 35.471 37.3938 35.4147 36.0813C35.3866 35.3595 35.1523 34.647 34.8616 33.972C34.946 33.8501 35.0305 33.7281 35.1147 33.597C36.596 31.4312 37.7397 29.0501 37.7397 29.0501C37.7397 29.0501 37.8522 29.7813 38.1991 30.9813C38.3772 31.5907 38.7335 32.2564 39.0522 32.9127C37.6647 34.0471 36.7929 35.3596 36.4929 36.2221C35.9398 37.8158 36.371 38.5377 37.1866 38.7064C37.5522 38.7814 38.0773 38.6127 38.4709 38.4439C38.9584 38.2846 39.549 38.0126 40.0929 37.6096C41.0304 36.9158 41.9304 35.9502 41.8835 34.6471C41.8554 34.0471 41.696 33.4564 41.4804 32.8939C42.6616 32.4064 44.1897 32.1252 46.1304 32.3596C50.3022 32.8471 51.1273 35.4533 50.968 36.5408C50.8086 37.6284 49.9367 38.2283 49.646 38.4158C49.3554 38.5939 49.2616 38.6597 49.2897 38.7908C49.3273 38.9878 49.4585 38.9783 49.7116 38.9409C50.0585 38.8846 51.9054 38.0503 51.9804 36.0441C52.0929 33.4656 49.646 30.6531 45.3054 30.6812ZM13.1304 41.528C11.7522 43.0374 9.81163 43.6093 8.98662 43.1218C8.096 42.6062 8.44278 40.3843 10.1397 38.7812C11.171 37.8062 12.5116 36.9062 13.3929 36.353C13.5897 36.2312 13.8897 36.0531 14.246 35.8374C14.3022 35.8 14.3398 35.7812 14.3398 35.7812C14.4054 35.7437 14.4804 35.6968 14.5554 35.6499C15.1835 37.9374 14.5835 39.9437 13.1304 41.528ZM23.2085 34.6749C22.7304 35.8468 21.7179 38.8562 21.1085 38.6874C20.5834 38.5468 20.2647 36.2687 21.0053 34.0187C21.3803 32.8842 22.1772 31.5343 22.6459 31.0092C23.4054 30.1654 24.2303 29.8842 24.4366 30.2311C24.6804 30.6812 23.5085 33.9437 23.2085 34.6749ZM31.5241 38.6499C31.3179 38.7531 31.1304 38.828 31.046 38.7719C30.9804 38.7344 31.1303 38.5938 31.1303 38.5938C31.1303 38.5938 32.1709 37.4781 32.5834 36.9625C32.8178 36.6626 33.099 36.3157 33.399 35.9219V36.0344C33.3991 37.3843 32.1054 38.2843 31.5241 38.6499ZM37.9365 37.1874C37.7865 37.0749 37.8054 36.728 38.3115 35.6405C38.5085 35.2093 38.9584 34.4874 39.7365 33.803C39.8303 34.0843 39.8866 34.3561 39.8772 34.6093C39.8679 36.2968 38.6679 36.9249 37.9365 37.1874Z" fill="#CF649A"></path>
                           </g>
                           <defs>
                              <clipPath id="clip0_4374_564">
                                 <rect width="48" height="36" fill="white" transform="translate(4 10)"></rect>
                              </clipPath>
                           </defs>
                        </svg>